<svg xmlns="http://www.w3.org/2000/svg"><symbol id="sprout" viewBox="0 0 24 24"><path d="M7 20h10"></path><path d="M10 20c5.5-2.5.8-6.4 3-10"></path><path d="M9.5 9.4c1.1.8 1.8 2.2 2.3 3.7-2 .4-3.5.4-4.8-.3-1.2-.6-2.3-1.9-3-4.2 2.8-.5 4.4 0 5.5.8z"></path><path d="M14.1 6a7 7 0 0 0-1.1 4c1.9-.1 3.3-.6 4.3-1.4 1-1 1.6-2.3 1.7-4.6-2.7.1-4 1-4.9 2z"></path></symbol><symbol id="flower-2" viewBox="0 0 24 24"><path d="M12 5a3 3 0 1 1 3 3m-3-3a3 3 0 1 0-3 3m3-3v1M9 8a3 3 0 1 0 3 3M9 8h1m5 0a3 3 0 1 1-3 3m3-3h-1m-2 3v-1"></path><circle cx="12" cy="8" r="2"></circle><path d="M12 10v12"></path><path d="M12 22c4.2 0 7-1.667 7-5-4.2 0-7 1.667-7 5Z"></path><path d="M12 22c-4.2 0-7-1.667-7-5 4.2 0 7 1.667 7 5Z"></path></symbol><symbol id="moon" viewBox="0 0 24 24"><path d="M12 3a6 6 0 0 0 9 9 9 9 0 1 1-9-9Z"></path></symbol><symbol id="sun" viewBox="0 0 24 24"><circle cx="12" cy="12" r="4"></circle><path d="M12 2v2"></path><path d="M12 20v2"></path><path d="m4.93 4.93 1.41 1.41"></path><path d="m17.66 17.66 1.41 1.41"></path><path d="M2 12h2"></path><path d="M20 12h2"></path><path d="m6.34 17.66-1.41 1.41"></path><path d="m19.07 4.93-1.41 1.41"></path></symbol><symbol id="circle-help" viewBox="0 0 24 24"><circle cx="12" cy="12" r="10"></circle><path d="M9.09 9a3 3 0 0 1 5.83 1c0 2-3 3-3 3"></path><path d="M12 17h.01"></path></symbol><symbol id="corner-down-left" viewBox="0 0 24 24"><polyline points="9 10 4 15 9 20"></polyline><path d="M20 4v7a4 4 0 0 1-4 4H4"></path></symbol><symbol id="arrow-up-right" viewBox="0 0 24 24"><path d="M7 7h10v10"></path><path d="M7 17 17 7"></path></symbol><symbol id="scissors" viewBox="0 0 24 24"><circle cx="6" cy="6" r="3"></circle><path d="M8.12 8.12 12 12"></path><path d="M20 4 8.12 15.88"></path><circle cx="6" cy="18" r="3"></circle><path d="M14.8 14.8 20 20"></path></symbol><symbol id="code-2" viewBox="0 0 24 24"><path d="m18 16 4-4-4-4"></path><path d="m6 8-4 4 4 4"></path><path d="m14.5 4-5 16"></path></symbol><symbol id="pencil-ruler" viewBox="0 0 24 24"><path d="m15 5 4 4"></path><path d="M13 7 8.7 2.7a2.41 2.41 0 0 0-3.4 0L2.7 5.3a2.41 2.41 0 0 0 0 3.4L7 13"></path><path d="m8 6 2-2"></path><path d="m2 22 5.5-1.5L21.17 6.83a2.82 2.82 0 0 0-4-4L3.5 16.5Z"></path><path d="m18 16 2-2"></path><path d="m17 11 4.3 4.3c.94.94.94 2.46 0 3.4l-2.6 2.6c-.94.94-2.46.94-3.4 0L11 17"></path></symbol><symbol id="sparkles" viewBox="0 0 24 24"><path d="m12 3-1.912 5.813a2 2 0 0 1-1.275 1.275L3 12l5.813 1.912a2 2 0 0 1 1.275 1.275L12 21l1.912-5.813a2 2 0 0 1 1.275-1.275L21 12l-5.813-1.912a2 2 0 0 1-1.275-1.275L12 3Z"></path><path d="M5 3v4"></path><path d="M19 17v4"></path><path d="M3 5h4"></path><path d="M17 19h4"></path></symbol><symbol id="coffee" viewBox="0 0 24 24"><path d="M17 8h1a4 4 0 1 1 0 8h-1"></path><path d="M3 8h14v9a4 4 0 0 1-4 4H7a4 4 0 0 1-4-4Z"></path><line x1="6" x2="6" y1="2" y2="4"></line><line x1="10" x2="10" y1="2" y2="4"></line><line x1="14" x2="14" y1="2" y2="4"></line></symbol><symbol id="pencil" viewBox="0 0 24 24"><path d="M17 3a2.85 2.83 0 1 1 4 4L7.5 20.5 2 22l1.5-5.5Z"></path><path d="m15 5 4 4"></path></symbol><symbol id="heart" viewBox="0 0 24 24"><path d="M19 14c1.49-1.46 3-3.21 3-5.5A5.5 5.5 0 0 0 16.5 3c-1.76 0-3 .5-4.5 2-1.5-1.5-2.74-2-4.5-2A5.5 5.5 0 0 0 2 8.5c0 2.3 1.5 4.05 3 5.5l7 7Z"></path></symbol><symbol id="corner-left-up" viewBox="0 0 24 24"><polyline points="14 9 9 4 4 9"></polyline><path d="M20 20h-7a4 4 0 0 1-4-4V4"></path></symbol><symbol id="feather" viewBox="0 0 24 24"><path d="M20.24 12.24a6 6 0 0 0-8.49-8.49L5 10.5V19h8.5z"></path><line x1="16" x2="2" y1="8" y2="22"></line><line x1="17.5" x2="9" y1="15" y2="15"></line></symbol><symbol id="rotate-ccw" viewBox="0 0 24 24"><path d="M3 12a9 9 0 1 0 9-9 9.75 9.75 0 0 0-6.74 2.74L3 8"></path><path d="M3 3v5h5"></path></symbol><symbol id="check" viewBox="0 0 24 24"><path d="M20 6 9 17l-5-5"></path></symbol><symbol id="leaf" viewBox="0 0 24 24"><path d="M11 20A7 7 0 0 1 9.8 6.1C15.5 5 17 4.48 19 2c1 2 2 4.18 2 8 0 5.5-4.78 10-10 10Z"></path><path d="M2 21c0-3 1.85-5.36 5.08-6C9.5 14.52 12 13 13 12"></path></symbol><symbol id="mouse" viewBox="0 0 24 24"><rect x="5" y="2" width="14" height="20" rx="7"></rect><path d="M12 6v4"></path></symbol><symbol id="arrow-left" viewBox="0 0 24 24"><path d="m12 19-7-7 7-7"></path><path d="M19 12H5"></path></symbol><symbol id="arrow-right" viewBox="0 0 24 24"><path d="M5 12h14"></path><path d="m12 5 7 7-7 7"></path></symbol><symbol id="x" viewBox="0 0 24 24"><path d="M18 6 6 18"></path><path d="m6 6 12 12"></path></symbol><symbol id="github" viewBox="0 0 24 24"><path d="M15 22v-4a4.8 4.8 0 0 0-1-3.5c3 0 6-2 6-5.5.08-1.25-.27-2.48-1-3.5.28-1.15.28-2.35 0-3.5 0 0-1 0-3 1.5-2.64-.5-5.36-.5-8 0C6 2 5 2 5 2c-.3 1.15-.3 2.35 0 3.5A5.403 5.403 0 0 0 4 9c0 3.5 3 5.5 6 5.5-.39.49-.68 1.05-.85 1.65-.17.6-.22 1.23-.15 1.85v4"></path><path d="M9 18c-4.51 2-5-2-7-2"></path></symbol><symbol id="mail" viewBox="0 0 24 24"><rect width="20" height="16" x="2" y="4" rx="2"></rect><path d="m22 7-8.97 5.7a1.94 1.94 0 0 1-2.06 0L2 7"></path></symbol><symbol id="message-circle" viewBox="0 0 24 24"><path d="M7.9 20A9 9 0 1 0 4 16.1L2 22Z"></path></symbol><symbol id="copy" viewBox="0 0 24 24"><rect width="14" height="14" x="8" y="8" rx="2" ry="2"></rect><path d="M4 16c-1.1 0-2-.9-2-2V4c0-1.1.9-2 2-2h10c1.1 0 2 .9 2 2"></path></symbol><symbol id="book-open" viewBox="0 0 24 24"><path d="M2 3h6a4 4 0 0 1 4 4v14a3 3 0 0 0-3-3H2z"></path><path d="M22 3h-6a4 4 0 0 0-4 4v14a3 3 0 0 1 3-3h7z"></path></symbol><symbol id="lightbulb" viewBox="0 0 24 24"><path d="M15 14c.2-1 .7-1.7 1.5-2.5 1-.9 1.5-2.2 1.5-3.5A6 6 0 0 0 6 8c0 1 .2 2.2 1.5 3.5.7.7 1.3 1.5 1.5 2.5"></path><path d="M9 18h6"></path><path d="M10 22h4"></path></symbol></svg>